<?xml version="1.0" encoding="UTF-8" standalone="no"?>
<!-- Generator: Adobe Illustrator 16.0.0, SVG Export Plug-In . SVG Version: 6.00 Build 0)  -->

<svg
   xmlns:dc="http://purl.org/dc/elements/1.1/"
   xmlns:cc="http://creativecommons.org/ns#"
   xmlns:rdf="http://www.w3.org/1999/02/22-rdf-syntax-ns#"
   xmlns:svg="http://www.w3.org/2000/svg"
   xmlns="http://www.w3.org/2000/svg"
   xmlns:sodipodi="http://sodipodi.sourceforge.net/DTD/sodipodi-0.dtd"
   xmlns:inkscape="http://www.inkscape.org/namespaces/inkscape"
   version="1.1"
   id="svg2"
   x="0px"
   y="0px"
   width="48"
   height="35.343079"
   viewBox="35.188 31.512 48.000001 35.343078"
   enable-background="new 35.188 31.512 351.46 258.785"
   xml:space="preserve"
   inkscape:version="0.48.4 r9939"
   sodipodi:docname="nvidia-logo.svg"><metadata
     id="metadata11"><rdf:RDF><cc:Work
         rdf:about=""><dc:format>image/svg+xml</dc:format><dc:type
           rdf:resource="http://purl.org/dc/dcmitype/StillImage" /><dc:title>generated by pstoedit version:3.44 from NVBadge_2D.eps</dc:title></cc:Work></rdf:RDF></metadata><defs
     id="defs9" /><sodipodi:namedview
     pagecolor="#ffffff"
     bordercolor="#666666"
     borderopacity="1"
     objecttolerance="10"
     gridtolerance="10"
     guidetolerance="10"
     inkscape:pageopacity="0"
     inkscape:pageshadow="2"
     inkscape:window-width="1535"
     inkscape:window-height="876"
     id="namedview7"
     showgrid="false"
     fit-margin-top="0"
     fit-margin-left="0"
     fit-margin-right="0"
     fit-margin-bottom="0"
     inkscape:zoom="0.91195393"
     inkscape:cx="175.73"
     inkscape:cy="129.3925"
     inkscape:window-x="65"
     inkscape:window-y="24"
     inkscape:window-maximized="1"
     inkscape:current-layer="svg2" /><title
     id="title4">generated by pstoedit version:3.44 from NVBadge_2D.eps</title><path
     id="path17"
     d="m 82.852987,65.736815 c 0,0.51502 -0.378171,0.86068 -0.825858,0.86068 v -0.003 c -0.460388,0.003 -0.831594,-0.34252 -0.831594,-0.8574 0,-0.51475 0.371206,-0.85946 0.831594,-0.85946 0.447824,-1.4e-4 0.825858,0.34457 0.825858,0.85932 z m 0.335014,0 c 0,-0.70677 -0.549024,-1.11703 -1.160872,-1.11703 -0.616081,0 -1.165105,0.41026 -1.165105,1.11703 0,0.70636 0.54916,1.11826 1.165105,1.11826 0.611985,0 1.160872,-0.4119 1.160872,-1.11826 m -1.35344,0.0945 h 0.124282 l 0.288033,0.50573 h 0.316303 l -0.319035,-0.52704 c 0.164844,-0.0117 0.300461,-0.0903 0.300461,-0.3122 0,-0.27575 -0.19011,-0.36438 -0.512149,-0.36438 h -0.465851 v 1.20362 h 0.26782 v -0.50573 m 1.36e-4,-0.20377 v -0.28981 h 0.186286 c 0.101337,0 0.239413,0.008 0.239413,0.1318 0,0.13452 -0.07143,0.15801 -0.19093,0.15801 h -0.234769"
     inkscape:connector-curvature="0" /><path
     id="path19"
     d="m 75.370281,59.579825 1.447402,3.95966 h -2.939601 l 1.492199,-3.95966 z m -1.550106,-1.54178 -3.335526,8.45115 h 2.355341 l 0.527582,-1.49329 h 3.947374 l 0.499311,1.49329 h 2.556923 l -3.360383,-8.45224 -3.190622,10e-4 z m -6.696591,8.45429 h 2.38962 v -8.45688 l -2.39003,-5.5e-4 4.1e-4,8.45743 z m -16.589132,-8.45743 -1.993695,6.70274 -1.909839,-6.70219 -2.578364,-5.5e-4 2.727639,8.45743 h 3.442599 l 2.749628,-8.45743 h -2.437968 z m 9.659137,1.84155 h 1.02703 c 1.490013,0 2.453673,0.66894 2.453673,2.40492 0,1.73639 -0.96366,2.40546 -2.453673,2.40546 h -1.02703 v -4.81038 z m -2.369545,-1.84155 v 8.45743 h 3.874035 c 2.06403,0 2.738018,-0.34307 3.466773,-1.1128 0.514744,-0.54042 0.847709,-1.72642 0.847709,-3.02291 0,-1.18914 -0.28175,-2.24908 -0.773004,-2.90955 -0.885131,-1.18122 -2.160178,-1.41217 -4.063051,-1.41217 H 57.824044 z M 35.188,58.023165 v 8.46917 h 2.409833 v -6.43068 l 1.867229,5.4e-4 c 0.618266,0 1.058988,0.15406 1.356717,0.47214 0.377625,0.40221 0.531816,1.05147 0.531816,2.23911 v 3.71889 h 2.335128 v -4.67927 c 0,-3.33962 -2.128629,-3.7899 -4.21137,-3.7899 H 35.188 z m 18.790144,0.0117 9.56e-4,8.45743 h 2.388528 v -8.45743 h -2.389484 z"
     inkscape:connector-curvature="0" /><path
     id="path21"
     d="m 41.610079,41.195305 c 0,0 3.073443,-4.53464 9.210084,-5.00377 v -1.64516 c -6.797109,0.54588 -12.683139,6.30271 -12.683139,6.30271 0,0 3.333751,9.63729 12.683139,10.51969 v -1.74869 c -6.861025,-0.86314 -9.210084,-8.42478 -9.210084,-8.42478 z m 9.210084,4.94709 v 1.60145 c -5.185409,-0.92446 -6.624754,-6.31473 -6.624754,-6.31473 0,0 2.489729,-2.7581 6.624754,-3.20537 v 1.75728 c -0.0031,0 -0.0053,-9.5e-4 -0.0079,-9.5e-4 -2.170284,-0.26045 -3.865703,1.76698 -3.865703,1.76698 0,0 0.950276,3.4131 3.873624,4.39534 m 0,-14.6304 v 3.03438 c 0.199534,-0.0153 0.399067,-0.0283 0.599693,-0.0351 7.727582,-0.26045 12.762625,6.33781 12.762625,6.33781 0,0 -5.782917,7.03188 -11.807705,7.03188 -0.552166,0 -1.069095,-0.0512 -1.554613,-0.13725 v 1.87637 c 0.415183,0.0527 0.845661,0.0837 1.29485,0.0837 5.606465,0 9.660912,-2.86325 13.586844,-6.25204 0.650908,0.5213 3.315723,1.78952 3.863518,2.34469 -3.732817,3.1252 -12.432391,5.64443 -17.364457,5.64443 -0.475411,0 -0.931975,-0.0288 -1.380755,-0.0721 v 2.63668 H 72.129946 V 31.511995 H 50.820163 z m 0,6.71175 v -2.03207 c 0.197485,-0.0138 0.396472,-0.0245 0.599693,-0.0309 5.556889,-0.17454 9.202572,4.77528 9.202572,4.77528 0,0 -3.937677,5.4688 -8.159699,5.4688 -0.607614,0 -1.152405,-0.0976 -1.642702,-0.26249 v -6.16137 c 2.163319,0.2614 2.598714,1.21701 3.8993,3.38511 l 2.892619,-2.43906 c 0,0 -2.111557,-2.7693 -5.671063,-2.7693 -0.386912,-1.3e-4 -0.757162,0.027 -1.12072,0.066"
     inkscape:connector-curvature="0"
     style="fill:#77b900" /></svg>